<?xml version="1.0" standalone="no"?>
<!DOCTYPE svg PUBLIC "-//W3C//DTD SVG 20010904//EN"
 "http://www.w3.org/TR/2001/REC-SVG-20010904/DTD/svg10.dtd">
<svg version="1.0" xmlns="http://www.w3.org/2000/svg"
 width="245.000000pt" height="264.000000pt" viewBox="0 0 245.000000 264.000000"
 preserveAspectRatio="xMidYMid meet">

<g transform="translate(0.000000,264.000000) scale(0.100000,-0.100000)"
fill="#000000" stroke="none">
<path d="M1056 2589 c-190 -28 -403 -119 -557 -240 -202 -157 -370 -419 -440
-684 -27 -105 -32 -141 -36 -287 l-6 -168 47 0 c42 0 46 -2 46 -25 0 -22 -4
-25 -40 -25 -33 0 -40 -3 -40 -20 0 -11 7 -20 15 -20 8 0 18 -17 25 -42 17
-66 60 -167 95 -218 l31 -46 -52 -39 -53 -38 21 -41 c11 -22 53 -99 93 -171
40 -72 91 -167 114 -211 52 -101 101 -159 146 -174 29 -9 41 -8 84 11 28 12
51 27 51 33 0 6 -10 27 -22 46 -11 19 -42 76 -68 125 -26 50 -82 155 -125 235
-43 80 -91 174 -106 210 -15 36 -32 64 -38 63 -19 -5 -111 198 -111 244 0 7 8
13 19 13 17 0 19 12 24 198 5 225 17 283 91 458 110 260 353 489 611 576 61
20 139 42 175 47 94 16 265 13 358 -4 81 -16 230 -63 286 -92 79 -40 211 -141
283 -216 98 -103 159 -195 212 -319 69 -162 83 -236 88 -455 5 -181 6 -193 24
-193 24 0 24 -13 0 -81 -39 -111 -68 -167 -91 -171 -16 -2 -29 -20 -49 -68
-24 -56 -254 -497 -307 -587 -19 -32 -19 -32 1 -47 40 -29 91 -38 129 -22 49
20 84 73 230 347 139 261 136 249 70 290 l-35 21 21 32 c37 55 88 169 102 230
9 40 19 61 31 64 35 9 19 32 -23 32 -36 0 -40 3 -40 25 0 23 4 25 46 25 l47 0
-6 158 c-4 133 -10 176 -37 282 -46 182 -120 331 -241 490 -179 236 -457 401
-749 445 -103 16 -250 18 -344 4z"/>
<path d="M534 1193 c-177 -98 -204 -117 -199 -141 3 -12 42 -102 86 -200 44
-97 92 -203 107 -234 14 -32 23 -60 20 -63 -3 -3 -53 101 -113 230 -59 129
-109 235 -112 235 -2 0 -19 -10 -38 -22 -26 -17 -33 -28 -29 -43 7 -23 315
-621 402 -778 33 -59 68 -114 78 -122 11 -8 40 -15 65 -15 40 0 60 9 165 76
143 93 171 117 185 165 18 57 3 94 -146 364 -45 83 -115 211 -155 285 -130
238 -161 278 -227 287 -29 4 -49 -2 -89 -24z"/>
<path d="M1770 1207 c-31 -16 -102 -117 -182 -262 -34 -60 -100 -180 -149
-265 -176 -313 -194 -377 -128 -446 19 -19 90 -71 158 -115 109 -69 130 -79
171 -79 25 0 55 7 67 15 11 8 76 119 143 247 67 128 160 303 205 388 45 85 95
183 110 217 l28 63 -24 20 c-48 40 -56 42 -67 12 -5 -15 -42 -99 -82 -187 -39
-88 -83 -184 -96 -214 -13 -30 -27 -51 -30 -48 -3 3 44 118 105 256 61 138
111 254 111 258 0 4 -39 31 -86 58 -47 28 -102 60 -122 72 -41 25 -94 29 -132
10z"/>
</g>
</svg>
